<?xml version="1.0" encoding="iso-8859-1"?>
<!-- Generator: Adobe Illustrator 18.0.0, SVG Export Plug-In . SVG Version: 6.00 Build 0)  -->
<!DOCTYPE svg PUBLIC "-//W3C//DTD SVG 1.1//EN" "http://www.w3.org/Graphics/SVG/1.1/DTD/svg11.dtd">
<svg version="1.1" id="Capa_1" xmlns="http://www.w3.org/2000/svg" xmlns:xlink="http://www.w3.org/1999/xlink" x="0px" y="0px"
	 viewBox="0 0 181.958 181.958" style="enable-background:new 0 0 181.958 181.958;" xml:space="preserve">
<g>
	<path d="M157.123,24.123c-0.059-0.583-0.526-0.867-0.972-0.857c-2.43-3.103-6.203-3.936-10.17-4.257
		c-7.945-0.643-16.392-0.618-24.36,0.048c-0.047-0.524-0.1-1.063-0.118-1.508c-0.044-1.134-1.046-1.608-1.906-1.458
		c-0.135-0.148-0.279-0.295-0.503-0.378c-2.059-0.767-4.548-0.434-6.726-0.35c-2.306,0.089-4.636,0.18-6.932,0.421
		C104.519,7.782,99.842-1.303,90.75,0.155c-6.908,1.108-10.938,7.596-11.916,14.254c-0.155-0.3-0.374-0.567-0.707-0.697
		c-3.562-1.389-8.963-0.466-12.629,0.27c-0.61,0.123-0.896,0.611-0.934,1.134c-0.032,0.072-0.105,0.097-0.117,0.188
		c-0.136,0.976-0.363,2.161-0.608,3.417C53.114,16.424,40.278,17.3,29.515,18.71c-0.731,0.096-1.045,0.696-0.982,1.241
		c-0.209,0.021-0.423,0.044-0.624,0.213c-4.89,4.101-5.096,7.11-5.98,13.415c-2.205,15.721-0.645,33.295-0.523,49.108
		c0.244,31.476,1.577,62.966,3.76,94.366c0.062,0.891,0.86,1.273,1.542,1.173c5.86,7.025,34.306,1.976,41.941,1.981
		c28.384,0.019,56.774,0.383,85.157,0.037c0.459-0.006,0.709-0.264,0.865-0.576c0.012-0.003,0.021,0.008,0.034,0.005
		c1.743-0.477,3.615-1.66,4.694-3.262c0.336-0.147,0.622-0.4,0.639-0.882c0.005-0.151,0.009-0.304,0.014-0.455
		c0.158-0.482,0.269-0.981,0.258-1.509c-0.004-0.204-0.101-0.363-0.197-0.519C161.751,124.025,162.097,72.864,157.123,24.123z
		 M92.071,3.187c9.014-0.443,9.98,10.175,10.96,16.667c-7.212,1.016-14.391,1.344-21.665,1.463
		C80.977,14.566,83.595,3.603,92.071,3.187z M66.311,16.584c1.987-0.119,3.966-0.27,5.959-0.268
		c1.948,0.002,3.953,0.309,5.856-0.129c0.254-0.059,0.399-0.204,0.544-0.346c-0.168,2.075-0.052,4.132,0.386,6.009
		c0,0.002,0.002,0.002,0.002,0.002c-0.246,0.476-0.171,1.12,0.474,1.232c8.553,1.483,17.187,1.083,25.705-0.467
		c1.48-0.269,1.338-1.993,0.348-2.677c0.037-0.634,0.037-1.297,0.017-1.972c2.242,0.229,4.52,0.326,6.768,0.407
		c1.966,0.071,4.107,0.31,6.027-0.181c0.182,7.45,1.269,15.044-7.274,17.589c-5.653,1.684-15.469-0.035-21.376-0.13
		c-5.154-0.083-14.742,1.591-19.229-0.509C63.644,31.928,66.102,22.944,66.311,16.584z M29.421,21.675
		c0.247-0.265,0.324-0.55,0.299-0.817c10.836,0.589,22.951,1.365,33.736-0.124c-0.397,2.089-0.772,4.336-0.931,6.496
		c-4.179,0.005-8.355,0.182-12.529,0.374c-3.236,0.149-6.598-0.118-9.564,1.274c-0.319,0.15-0.368,0.45-0.278,0.724
		c-0.101,0.136-0.213,0.264-0.226,0.473c-0.087,1.378-0.123,2.761-0.201,4.14c-5.054-0.143-10.106-0.061-15.162-0.301
		c0.4-2.582,0.984-4.981,1.803-7.094c5.275-0.234,10.542-0.594,15.797-1.091c0.656-0.062,0.679-1.074,0-1.041
		c-5.114,0.244-10.221,0.623-15.317,1.113C27.555,24.231,28.372,22.8,29.421,21.675z M24.716,108.32
		c0.074,0.058,0.15,0.116,0.269,0.118c3.296,0.039,6.623,0.215,9.916,0.074c0.718-0.031,0.719-1.085,0-1.116
		c-3.294-0.14-6.619,0.035-9.916,0.074c-0.128,0.001-0.213,0.061-0.288,0.126c-0.059-2.007-0.131-4.013-0.16-6.022
		c-0.003-0.175,0-0.351-0.003-0.527c3.226-0.475,6.44-0.52,9.703-0.42c0.623,0.019,0.793-1.022,0.151-1.114
		c-3.316-0.476-6.591-0.235-9.859,0.368c-0.04-2.865-0.015-5.73-0.042-8.594c3.472,0.048,6.948,0.126,10.415-0.01
		c0.658-0.026,0.659-0.997,0-1.023c-3.469-0.136-6.947-0.057-10.42-0.01c-0.018-2.1-0.013-4.201-0.031-6.301
		c3.92-0.48,7.825-0.524,11.774-0.532c0.756-0.002,0.724-1.08,0-1.153c-3.942-0.395-7.88-0.048-11.779,0.576
		c-0.025-3.105-0.031-6.21-0.046-9.315c2.619,0.057,5.24,0.116,7.858,0.047c0.837-0.022,0.839-1.279,0-1.302
		c-2.621-0.069-5.243-0.01-7.865,0.047c-0.005-1.579-0.031-3.159-0.023-4.739c0.007-1.365-0.037-2.926-0.1-4.607
		c3.634,0.204,7.21,0.01,10.78-0.751c0.714-0.152,0.397-1.183-0.296-1.076c-3.499,0.54-7.001,0.761-10.533,0.595
		c-0.105-2.501-0.243-5.26-0.347-8.133c4.56-0.107,9.139-0.157,13.672-0.61c0.736-0.074,0.769-1.158,0-1.172
		c-4.567-0.079-9.147,0.25-13.713,0.52c-0.088-2.775-0.128-5.638-0.07-8.471c3.932,0.084,7.876,0.203,11.801-0.042
		c0.848-0.053,0.85-1.267,0-1.32c-3.908-0.244-7.835-0.127-11.751-0.043c0.085-2.53,0.277-5.003,0.59-7.366
		c5.051,0.391,10.198,0.725,15.262,0.414c-1.419,25.759-1.51,51.668-0.991,77.551c-4.561-0.96-9.22-1.201-13.843-0.469
		C24.789,111.171,24.759,109.745,24.716,108.32z M154.003,178.006c-0.061,0.026-0.061,0.085-0.109,0.119
		c-0.036-0.004-0.049-0.038-0.087-0.039c-21.93-0.414-43.87-0.368-65.803-0.455c-10.322-0.041-20.644-0.068-30.966-0.165
		c-5.605-0.052-25.069,2.825-29.402-1.105c-0.014-0.228-0.026-0.455-0.04-0.682c0.009,0,0.011,0.008,0.02,0.007
		c7.947-0.437,15.855-0.525,23.812-0.377c0.686,0.013,0.676-1.019,0-1.06c-7.93-0.48-15.903-0.292-23.812,0.452
		c-0.033,0.003-0.046,0.031-0.075,0.039c-0.116-1.836-0.21-3.672-0.321-5.508c14.685,0.208,29.358,0.426,44.043,0.118
		c0.742-0.015,0.743-1.137,0-1.153c-14.702-0.308-29.394-0.09-44.096,0.119c-0.136-2.271-0.25-4.543-0.378-6.814
		c4.021,0.286,8.047,0.592,12.077,0.665c0.763,0.014,0.741-1.108,0-1.171c-4.034-0.343-8.089-0.452-12.137-0.582
		c-0.082-1.479-0.132-2.959-0.211-4.438c3.4-0.834,6.869-1.257,10.368-1.345c0.514-0.013,0.515-0.789,0-0.8
		c-3.55-0.074-6.974,0.372-10.411,1.228c-0.168-3.185-0.283-6.371-0.437-9.556c3.831,0.051,7.688,0.194,11.51-0.025
		c0.645-0.037,0.647-0.967,0-1.004c-3.837-0.221-7.71-0.075-11.558-0.025c-0.244-5.134-0.445-10.269-0.648-15.405
		c2.97-0.191,5.947-0.326,8.897-0.721c0.709-0.095,0.765-1.175,0-1.153c-2.991,0.086-5.967,0.439-8.945,0.732
		c-0.071-1.831-0.125-3.662-0.191-5.493c3.708-0.188,7.418-0.333,11.115-0.675c0.831-0.077,0.863-1.346,0-1.32
		c-3.726,0.113-7.442,0.426-11.16,0.694c-0.086-2.49-0.125-4.982-0.199-7.473c0.041,0.008,0.066,0.045,0.112,0.041
		c4.66-0.351,9.16-0.146,13.726,0.815c0.361,17.294,0.962,34.572,1.569,51.778c0.05,1.422,1.916,1.634,2.461,0.648
		c0.007,0,0.009,0.007,0.017,0.007c32.424,0.765,65.117,0.129,97.567,0.126c0.642,0.909,2.446,0.664,2.493-0.77
		c1.469-45.261,4.413-90.9,3.567-136.178c-0.02-1.077-1.572-1.051-1.655,0c-3.52,44.563-3.394,89.694-4.602,134.388
		c-31.942-2.223-65.403-2.63-97.257,0.732c-1.507-44.971-0.439-89.874-1.086-134.839c2.892,0.688,6.128,0.256,9.063,0.154
		c3.883-0.134,7.766-0.299,11.64-0.605c0.081,2.184,0.51,4.148,1.599,5.545c4.247,5.448,19.961,3.066,25.673,3.226
		c6.409,0.18,12.826,0.308,19.238,0.283c2.828-0.011,7.288,0.586,9.932-1.256c2.424-1.69,3.231-4.805,3.384-8.195
		c6.753,0.839,15.293,2.078,21.879,0.204c0.962-0.274,1.074-1.852,0-2.062c-3.374-0.66-6.932-0.244-10.366-0.25
		c-3.833-0.007-7.665-0.136-11.496-0.24c-0.068-2.166-0.305-4.343-0.514-6.252c5.238,0.599,10.519,0.706,15.787,0.839
		c6.047,0.153,12.792-0.747,17.502,3.769c0.064,0.061,0.143,0.045,0.212,0.087c-0.816,49.136,1.398,98.967,2.532,148.131
		C156.898,175.585,156.178,177.071,154.003,178.006z"/>
	<path d="M36.736,135.83c-3.543,0.507-7.06,1.303-10.575,1.974c-0.625,0.119-0.357,1.057,0.262,0.95
		c3.529-0.612,7.104-1.108,10.6-1.885C37.716,136.716,37.404,135.735,36.736,135.83z"/>
</g>
<g>
</g>
<g>
</g>
<g>
</g>
<g>
</g>
<g>
</g>
<g>
</g>
<g>
</g>
<g>
</g>
<g>
</g>
<g>
</g>
<g>
</g>
<g>
</g>
<g>
</g>
<g>
</g>
<g>
</g>
</svg>
